<mxfile host="app.diagrams.net" modified="2024-03-01T16:26:47.678Z" agent="Mozilla/5.0 (Windows NT 10.0; Win64; x64; rv:123.0) Gecko/20100101 Firefox/123.0" etag="7H8PEnDSUs4v_0Z2rDdh" version="23.1.4" type="device">
  <diagram name="Page-1" id="dFmc4SeiALAdxSmlRPcr">
    <mxGraphModel dx="989" dy="487" grid="1" gridSize="10" guides="1" tooltips="1" connect="1" arrows="1" fold="1" page="1" pageScale="1" pageWidth="827" pageHeight="1169" math="0" shadow="0">
      <root>
        <mxCell id="0" />
        <mxCell id="1" parent="0" />
        <mxCell id="OYaM7oI7Gwu251D2yHhQ-25" value="" style="shape=table;startSize=0;container=1;collapsible=0;childLayout=tableLayout;fontSize=15;align=center;fontFamily=Lucida Console;strokeWidth=1;fillColor=none;" parent="1" vertex="1">
          <mxGeometry x="19" y="520" width="671" height="180" as="geometry" />
        </mxCell>
        <mxCell id="OYaM7oI7Gwu251D2yHhQ-43" style="shape=tableRow;horizontal=0;startSize=0;swimlaneHead=0;swimlaneBody=0;strokeColor=inherit;top=0;left=0;bottom=0;right=0;collapsible=0;dropTarget=0;fillColor=none;points=[[0,0.5],[1,0.5]];portConstraint=eastwest;fontSize=15;fontFamily=Lucida Console;strokeWidth=2;" parent="OYaM7oI7Gwu251D2yHhQ-25" vertex="1">
          <mxGeometry width="671" height="60" as="geometry" />
        </mxCell>
        <mxCell id="OYaM7oI7Gwu251D2yHhQ-44" value="signal_1" style="shape=partialRectangle;html=1;whiteSpace=wrap;connectable=0;strokeColor=inherit;overflow=hidden;fillColor=none;top=0;left=0;bottom=0;right=0;pointerEvents=1;fontSize=15;fontFamily=Lucida Console;align=center;strokeWidth=2;" parent="OYaM7oI7Gwu251D2yHhQ-43" vertex="1">
          <mxGeometry width="251" height="60" as="geometry">
            <mxRectangle width="251" height="60" as="alternateBounds" />
          </mxGeometry>
        </mxCell>
        <mxCell id="OYaM7oI7Gwu251D2yHhQ-45" style="shape=partialRectangle;html=1;whiteSpace=wrap;connectable=0;strokeColor=inherit;overflow=hidden;fillColor=none;top=0;left=0;bottom=0;right=0;pointerEvents=1;fontSize=15;fontFamily=Lucida Console;align=center;strokeWidth=2;" parent="OYaM7oI7Gwu251D2yHhQ-43" vertex="1">
          <mxGeometry x="251" width="420" height="60" as="geometry">
            <mxRectangle width="420" height="60" as="alternateBounds" />
          </mxGeometry>
        </mxCell>
        <mxCell id="OYaM7oI7Gwu251D2yHhQ-26" value="" style="shape=tableRow;horizontal=0;startSize=0;swimlaneHead=0;swimlaneBody=0;strokeColor=inherit;top=0;left=0;bottom=0;right=0;collapsible=0;dropTarget=0;fillColor=none;points=[[0,0.5],[1,0.5]];portConstraint=eastwest;fontSize=15;fontFamily=Lucida Console;strokeWidth=2;" parent="OYaM7oI7Gwu251D2yHhQ-25" vertex="1">
          <mxGeometry y="60" width="671" height="60" as="geometry" />
        </mxCell>
        <mxCell id="OYaM7oI7Gwu251D2yHhQ-27" value="signal_2" style="shape=partialRectangle;html=1;whiteSpace=wrap;connectable=0;strokeColor=inherit;overflow=hidden;fillColor=none;top=0;left=0;bottom=0;right=0;pointerEvents=1;fontSize=15;fontFamily=Lucida Console;align=center;strokeWidth=2;" parent="OYaM7oI7Gwu251D2yHhQ-26" vertex="1">
          <mxGeometry width="251" height="60" as="geometry">
            <mxRectangle width="251" height="60" as="alternateBounds" />
          </mxGeometry>
        </mxCell>
        <mxCell id="OYaM7oI7Gwu251D2yHhQ-28" value="" style="shape=partialRectangle;html=1;whiteSpace=wrap;connectable=0;strokeColor=inherit;overflow=hidden;fillColor=none;top=0;left=0;bottom=0;right=0;pointerEvents=1;fontSize=15;fontFamily=Lucida Console;align=center;strokeWidth=2;" parent="OYaM7oI7Gwu251D2yHhQ-26" vertex="1">
          <mxGeometry x="251" width="420" height="60" as="geometry">
            <mxRectangle width="420" height="60" as="alternateBounds" />
          </mxGeometry>
        </mxCell>
        <mxCell id="OYaM7oI7Gwu251D2yHhQ-30" value="" style="shape=tableRow;horizontal=0;startSize=0;swimlaneHead=0;swimlaneBody=0;strokeColor=inherit;top=0;left=0;bottom=0;right=0;collapsible=0;dropTarget=0;fillColor=none;points=[[0,0.5],[1,0.5]];portConstraint=eastwest;fontSize=15;fontFamily=Lucida Console;strokeWidth=2;" parent="OYaM7oI7Gwu251D2yHhQ-25" vertex="1">
          <mxGeometry y="120" width="671" height="60" as="geometry" />
        </mxCell>
        <mxCell id="OYaM7oI7Gwu251D2yHhQ-31" value="merge(signal_1,&amp;nbsp;signal_2)" style="shape=partialRectangle;html=1;whiteSpace=wrap;connectable=0;strokeColor=inherit;overflow=hidden;fillColor=none;top=0;left=0;bottom=0;right=0;pointerEvents=1;fontSize=15;fontFamily=Lucida Console;align=center;strokeWidth=2;" parent="OYaM7oI7Gwu251D2yHhQ-30" vertex="1">
          <mxGeometry width="251" height="60" as="geometry">
            <mxRectangle width="251" height="60" as="alternateBounds" />
          </mxGeometry>
        </mxCell>
        <mxCell id="OYaM7oI7Gwu251D2yHhQ-32" value="" style="shape=partialRectangle;html=1;whiteSpace=wrap;connectable=0;strokeColor=inherit;overflow=hidden;fillColor=none;top=0;left=0;bottom=0;right=0;pointerEvents=1;fontSize=15;fontFamily=Lucida Console;align=center;strokeWidth=2;" parent="OYaM7oI7Gwu251D2yHhQ-30" vertex="1">
          <mxGeometry x="251" width="420" height="60" as="geometry">
            <mxRectangle width="420" height="60" as="alternateBounds" />
          </mxGeometry>
        </mxCell>
        <mxCell id="OYaM7oI7Gwu251D2yHhQ-38" value="" style="group;fontFamily=Lucida Console;fontSize=15;strokeWidth=2;" parent="1" vertex="1" connectable="0">
          <mxGeometry x="280" y="650" width="400" height="40" as="geometry" />
        </mxCell>
        <mxCell id="OYaM7oI7Gwu251D2yHhQ-2" value="" style="endArrow=classic;html=1;rounded=0;endFill=1;fontFamily=Lucida Console;fontSize=15;strokeWidth=2;" parent="OYaM7oI7Gwu251D2yHhQ-38" edge="1">
          <mxGeometry width="50" height="50" relative="1" as="geometry">
            <mxPoint x="380" y="20" as="sourcePoint" />
            <mxPoint x="400" y="20" as="targetPoint" />
          </mxGeometry>
        </mxCell>
        <mxCell id="OYaM7oI7Gwu251D2yHhQ-16" value="" style="endArrow=none;html=1;rounded=0;endFill=0;fontFamily=Lucida Console;fontSize=15;strokeWidth=2;" parent="OYaM7oI7Gwu251D2yHhQ-38" edge="1">
          <mxGeometry width="50" height="50" relative="1" as="geometry">
            <mxPoint y="20" as="sourcePoint" />
            <mxPoint x="124" y="20" as="targetPoint" />
          </mxGeometry>
        </mxCell>
        <mxCell id="OYaM7oI7Gwu251D2yHhQ-21" value="" style="endArrow=none;html=1;rounded=0;endFill=0;fontFamily=Lucida Console;fontSize=15;strokeWidth=2;" parent="OYaM7oI7Gwu251D2yHhQ-38" edge="1">
          <mxGeometry width="50" height="50" relative="1" as="geometry">
            <mxPoint x="164" y="20" as="sourcePoint" />
            <mxPoint x="270" y="20" as="targetPoint" />
          </mxGeometry>
        </mxCell>
        <mxCell id="OYaM7oI7Gwu251D2yHhQ-20" value="" style="endArrow=none;html=1;rounded=0;endFill=0;fontFamily=Lucida Console;fontSize=15;strokeWidth=2;" parent="OYaM7oI7Gwu251D2yHhQ-38" edge="1">
          <mxGeometry width="50" height="50" relative="1" as="geometry">
            <mxPoint x="270" y="20" as="sourcePoint" />
            <mxPoint x="340" y="20" as="targetPoint" />
          </mxGeometry>
        </mxCell>
        <mxCell id="T6vPmYs071VJ5gS5fuKt-10" value="1" style="rounded=1;whiteSpace=wrap;html=1;arcSize=50;fillColor=#dae8fc;strokeColor=#6c8ebf;strokeWidth=2;fontFamily=Lucida Console;fontSize=15;" parent="OYaM7oI7Gwu251D2yHhQ-38" vertex="1">
          <mxGeometry x="10" width="60" height="40" as="geometry" />
        </mxCell>
        <mxCell id="T6vPmYs071VJ5gS5fuKt-11" value="2" style="rounded=1;whiteSpace=wrap;html=1;arcSize=50;fillColor=#d5e8d4;strokeColor=#82b366;strokeWidth=2;fontFamily=Lucida Console;fontSize=15;" parent="OYaM7oI7Gwu251D2yHhQ-38" vertex="1">
          <mxGeometry x="70" width="30" height="40" as="geometry" />
        </mxCell>
        <mxCell id="T6vPmYs071VJ5gS5fuKt-13" value="20" style="rounded=1;whiteSpace=wrap;html=1;arcSize=50;fillColor=#f5f5f5;strokeColor=#666666;strokeWidth=2;fontFamily=Lucida Console;fontSize=15;fontColor=#333333;" parent="OYaM7oI7Gwu251D2yHhQ-38" vertex="1">
          <mxGeometry x="180" width="100" height="40" as="geometry" />
        </mxCell>
        <mxCell id="T6vPmYs071VJ5gS5fuKt-14" value="30" style="rounded=1;whiteSpace=wrap;html=1;arcSize=50;fillColor=#f5f5f5;strokeColor=#666666;strokeWidth=2;fontFamily=Lucida Console;fontSize=15;fontColor=#333333;" parent="OYaM7oI7Gwu251D2yHhQ-38" vertex="1">
          <mxGeometry x="280" width="60" height="40" as="geometry" />
        </mxCell>
        <mxCell id="T6vPmYs071VJ5gS5fuKt-15" value="3" style="rounded=1;whiteSpace=wrap;html=1;arcSize=50;fillColor=#f8cecc;strokeColor=#b85450;strokeWidth=2;fontFamily=Lucida Console;fontSize=15;" parent="OYaM7oI7Gwu251D2yHhQ-38" vertex="1">
          <mxGeometry x="340" width="40" height="40" as="geometry" />
        </mxCell>
        <mxCell id="Ankvqhdwg_yrjaq8heoO-4" value="10" style="rounded=1;whiteSpace=wrap;html=1;arcSize=50;fillColor=#f5f5f5;strokeColor=#666666;strokeWidth=2;fontFamily=Lucida Console;fontSize=15;fontColor=#333333;" vertex="1" parent="OYaM7oI7Gwu251D2yHhQ-38">
          <mxGeometry x="100" width="80" height="40" as="geometry" />
        </mxCell>
        <mxCell id="OYaM7oI7Gwu251D2yHhQ-39" value="" style="group;fontFamily=Lucida Console;fontSize=15;strokeWidth=2;" parent="1" vertex="1" connectable="0">
          <mxGeometry x="280" y="590" width="400" height="40" as="geometry" />
        </mxCell>
        <mxCell id="OYaM7oI7Gwu251D2yHhQ-1" value="" style="endArrow=classic;html=1;rounded=0;fontFamily=Lucida Console;fontSize=15;strokeWidth=2;" parent="OYaM7oI7Gwu251D2yHhQ-39" edge="1">
          <mxGeometry width="50" height="50" relative="1" as="geometry">
            <mxPoint x="269.99999999999295" y="20" as="sourcePoint" />
            <mxPoint x="400" y="20" as="targetPoint" />
          </mxGeometry>
        </mxCell>
        <mxCell id="OYaM7oI7Gwu251D2yHhQ-6" value="" style="endArrow=none;html=1;rounded=0;endFill=0;fontFamily=Lucida Console;fontSize=15;strokeWidth=2;" parent="OYaM7oI7Gwu251D2yHhQ-39" edge="1">
          <mxGeometry width="50" height="50" relative="1" as="geometry">
            <mxPoint y="20" as="sourcePoint" />
            <mxPoint x="124" y="20" as="targetPoint" />
          </mxGeometry>
        </mxCell>
        <mxCell id="OYaM7oI7Gwu251D2yHhQ-9" value="" style="endArrow=none;html=1;rounded=0;endFill=0;fontFamily=Lucida Console;fontSize=15;strokeWidth=2;" parent="OYaM7oI7Gwu251D2yHhQ-39" edge="1">
          <mxGeometry width="50" height="50" relative="1" as="geometry">
            <mxPoint x="164" y="20" as="sourcePoint" />
            <mxPoint x="400" y="20" as="targetPoint" />
          </mxGeometry>
        </mxCell>
        <mxCell id="OYaM7oI7Gwu251D2yHhQ-10" value="" style="endArrow=none;html=1;rounded=0;endFill=0;fontFamily=Lucida Console;fontSize=15;strokeWidth=2;" parent="OYaM7oI7Gwu251D2yHhQ-39" edge="1">
          <mxGeometry width="50" height="50" relative="1" as="geometry">
            <mxPoint x="220" y="20" as="sourcePoint" />
            <mxPoint x="270" y="20" as="targetPoint" />
          </mxGeometry>
        </mxCell>
        <mxCell id="T6vPmYs071VJ5gS5fuKt-7" value="10" style="rounded=1;whiteSpace=wrap;html=1;arcSize=50;fillColor=#f5f5f5;strokeColor=#666666;strokeWidth=2;fontFamily=Lucida Console;fontSize=15;fontColor=#333333;" parent="OYaM7oI7Gwu251D2yHhQ-39" vertex="1">
          <mxGeometry x="100" width="80" height="40" as="geometry" />
        </mxCell>
        <mxCell id="T6vPmYs071VJ5gS5fuKt-8" value="20" style="rounded=1;whiteSpace=wrap;html=1;arcSize=50;fillColor=#f5f5f5;strokeColor=#666666;strokeWidth=2;fontFamily=Lucida Console;fontSize=15;fontColor=#333333;" parent="OYaM7oI7Gwu251D2yHhQ-39" vertex="1">
          <mxGeometry x="180" width="100" height="40" as="geometry" />
        </mxCell>
        <mxCell id="T6vPmYs071VJ5gS5fuKt-9" value="30" style="rounded=1;whiteSpace=wrap;html=1;arcSize=50;fillColor=#f5f5f5;strokeColor=#666666;strokeWidth=2;fontFamily=Lucida Console;fontSize=15;fontColor=#333333;" parent="OYaM7oI7Gwu251D2yHhQ-39" vertex="1">
          <mxGeometry x="280" width="100" height="40" as="geometry" />
        </mxCell>
        <mxCell id="OYaM7oI7Gwu251D2yHhQ-46" value="" style="group;fontFamily=Lucida Console;fontSize=15;strokeWidth=2;" parent="1" vertex="1" connectable="0">
          <mxGeometry x="280" y="530" width="400" height="40" as="geometry" />
        </mxCell>
        <mxCell id="OYaM7oI7Gwu251D2yHhQ-47" value="" style="endArrow=classic;html=1;rounded=0;fontFamily=Lucida Console;fontSize=15;strokeWidth=2;" parent="OYaM7oI7Gwu251D2yHhQ-46" edge="1">
          <mxGeometry width="50" height="50" relative="1" as="geometry">
            <mxPoint x="380" y="20" as="sourcePoint" />
            <mxPoint x="400" y="20" as="targetPoint" />
          </mxGeometry>
        </mxCell>
        <mxCell id="OYaM7oI7Gwu251D2yHhQ-48" value="" style="endArrow=none;html=1;rounded=0;endFill=0;fontFamily=Lucida Console;fontSize=15;strokeWidth=2;" parent="OYaM7oI7Gwu251D2yHhQ-46" edge="1">
          <mxGeometry width="50" height="50" relative="1" as="geometry">
            <mxPoint y="20" as="sourcePoint" />
            <mxPoint x="10" y="20" as="targetPoint" />
          </mxGeometry>
        </mxCell>
        <mxCell id="OYaM7oI7Gwu251D2yHhQ-50" value="" style="endArrow=none;html=1;rounded=0;endFill=0;fontFamily=Lucida Console;fontSize=15;strokeWidth=2;" parent="OYaM7oI7Gwu251D2yHhQ-46" edge="1">
          <mxGeometry width="50" height="50" relative="1" as="geometry">
            <mxPoint x="50" y="20" as="sourcePoint" />
            <mxPoint x="400" y="20" as="targetPoint" />
          </mxGeometry>
        </mxCell>
        <mxCell id="OYaM7oI7Gwu251D2yHhQ-52" value="" style="endArrow=none;html=1;rounded=0;endFill=0;fontFamily=Lucida Console;fontSize=15;strokeWidth=2;" parent="OYaM7oI7Gwu251D2yHhQ-46" edge="1">
          <mxGeometry width="50" height="50" relative="1" as="geometry">
            <mxPoint x="110" y="20" as="sourcePoint" />
            <mxPoint x="400" y="20" as="targetPoint" />
          </mxGeometry>
        </mxCell>
        <mxCell id="T6vPmYs071VJ5gS5fuKt-2" value="1" style="rounded=1;whiteSpace=wrap;html=1;arcSize=50;fillColor=#dae8fc;strokeColor=#6c8ebf;strokeWidth=2;fontFamily=Lucida Console;fontSize=15;" parent="OYaM7oI7Gwu251D2yHhQ-46" vertex="1">
          <mxGeometry x="10" width="60" height="40" as="geometry" />
        </mxCell>
        <mxCell id="T6vPmYs071VJ5gS5fuKt-3" value="2" style="rounded=1;whiteSpace=wrap;html=1;arcSize=50;fillColor=#d5e8d4;strokeColor=#82b366;strokeWidth=2;fontFamily=Lucida Console;fontSize=15;" parent="OYaM7oI7Gwu251D2yHhQ-46" vertex="1">
          <mxGeometry x="70" width="270" height="40" as="geometry" />
        </mxCell>
        <mxCell id="T6vPmYs071VJ5gS5fuKt-4" value="3" style="rounded=1;whiteSpace=wrap;html=1;arcSize=50;fillColor=#f8cecc;strokeColor=#b85450;strokeWidth=2;fontFamily=Lucida Console;fontSize=15;" parent="OYaM7oI7Gwu251D2yHhQ-46" vertex="1">
          <mxGeometry x="340" width="40" height="40" as="geometry" />
        </mxCell>
      </root>
    </mxGraphModel>
  </diagram>
</mxfile>
